<svg id="вектор_" data-name="вектор?" xmlns="http://www.w3.org/2000/svg" width="1920" height="1000" viewBox="0 0 1920 1000">
  <metadata><?xpacket begin="﻿" id="W5M0MpCehiHzreSzNTczkc9d"?>
<x:xmpmeta xmlns:x="adobe:ns:meta/" x:xmptk="Adobe XMP Core 5.6-c142 79.160924, 2017/07/13-01:06:39        ">
   <rdf:RDF xmlns:rdf="http://www.w3.org/1999/02/22-rdf-syntax-ns#">
      <rdf:Description rdf:about=""/>
   </rdf:RDF>
</x:xmpmeta>
                                                                                                    
                                                                                                    
                                                                                                    
                                                                                                    
                                                                                                    
                                                                                                    
                                                                                                    
                                                                                                    
                                                                                                    
                                                                                                    
                                                                                                    
                                                                                                    
                                                                                                    
                                                                                                    
                                                                                                    
                                                                                                    
                                                                                                    
                                                                                                    
                                                                                                    
                                                                                                    
                           
<?xpacket end="w"?></metadata>
<defs>
    <style>
      .cls-1 {
        fill: #1f6a35;
        stroke: #1f6a35;
      }

      .cls-1, .cls-2 {
        stroke-width: 1px;
        fill-rule: evenodd;
      }

      .cls-2 {
        fill: #29a131;
        stroke: #29a131;
      }
    </style>
  </defs>
  <path id="середина" class="cls-1" d="M679,514H942s6.593,155.744-119,271c0,0-111.15,109.189-277,94l1,60s-117.164-.2-216-77l41-44s-59.267-33.911-104-106l-45,38s-67.841-79.8-72-218l59,6S186.011,172.761,576,148V410s-110.135.844-104,118c0,0,16.5,108.013,131,86C603,614,673.518,601.273,679,514Z"/>
  <path id="треугольник" class="cls-1" d="M623,467L945,315S898.329,214.4,776,145ZM807,255s14.828,14.781,28,30l-75,45Zm9-17,23-37s33.18,27.483,50,50l-36,23S830.388,247.016,816,238Z"/>
  <path id="внешнийкруг" class="cls-2" d="M995,514h45s10.49,212.889-176,364c0,0-126,119.7-327,100,0,0-144.986,1.2-279-121,0,0-108.656-86.541-143-258,0,0-32.916-151.441,46-299,0,0,58.139-126.627,190-194,0,0,87.973-56.046,225-57V94s-141.6-5.78-261,89c0,0-81.737,56.746-131,172,0,0-33.585,78.752-31,177,0,0,.194,116.115,72,217,0,0,29.384,58.564,108,112,0,0,76.273,64.018,215,75,0,0,141.437,16.819,280-84,0,0,82.548-58.09,130-162C958,690,995.537,613.585,995,514Z"/>
  <path id="з" class="cls-1" d="M1063,666h86V582s-0.46-13.684,20-13c0,0,16.74-2.664,18,13v85s-0.13,19.238-29,24h-13v48h13s26.72,0.377,29,27V877s1.75,15.819-16,16h-5s-16-1.007-16-16V770h-87V880s-6.54,75.732,98,80h23s97.4,4.049,99-85V784s-0.34-52.145-52-67c0,0,48.44-11.95,50-63V573s2.53-60.98-102-68h-19s-91.17-2.967-96,67Z"/>
  <path id="с" class="cls-1" d="M1427,664h89V579s7.32-68.564-84-75h-33s-99.5-2.056-99,82V885s-4.52,72.926,103,74h18s91.52-4.181,95-68V776h-89V889s0.3,8.041-12,9h-7s-10.35-.881-10-10V573s-1.06-7.2,11-9h7s8.92,0.235,11,9v91Z"/>
  <path id="а" class="cls-1" d="M1603,508h127l71,447h-97l-16-120h-43l-16,120h-98Zm77,265h-26l12-133h1Z"/>
</svg>
